<svg id="Layer_1" data-name="Layer 1" xmlns="http://www.w3.org/2000/svg" viewBox="0 0 1000 1000"><defs><style>.cls-1{fill:#fff;}</style></defs><title>mark_techtogether_white</title><path class="cls-1" d="M68.12,500.88c0-239.62,198-433.87,439-427.74,232.61,5.92,419,199.24,416.77,431.92-.94,99.22-35.45,193.1-98.15,268.61-13.89,16.73-39.31,17.61-54.7,2.23v0a37.19,37.19,0,0,1-2.31-50c55.76-67.36,84.43-152.35,80.39-241.47-8.27-182.83-157.29-330.17-340.2-336.71-200.74-7.17-366.34,154.06-366.34,353.23A353,353,0,0,0,462.19,852.75a37.23,37.23,0,0,1,33.81,37h0a37.31,37.31,0,0,1-41,37.05A427.43,427.43,0,0,1,68.12,500.88Z"/><path class="cls-1" d="M210.72,459.51c-22-3.17-36.64-24.9-30.69-46.34a327.89,327.89,0,0,1,643.83,87.71c0,180.78-147.08,327.86-327.86,327.86A328.7,328.7,0,0,1,233.31,697.08,37.15,37.15,0,0,1,245,642.59h0a37.1,37.1,0,0,1,48,9.91A254.11,254.11,0,0,0,496,754.31c139.74,0,253.43-113.69,253.43-253.43A253.42,253.42,0,0,0,496,247.45c-114.36,0-214.23,77.83-244.23,185.57a37,37,0,0,1-41,26.49Z"/><path class="cls-1" d="M269.29,502.59c-.89-119.81,93.25-220.85,212.85-228a226.09,226.09,0,0,1,134.1,34,37.29,37.29,0,0,1,7.46,57.26h0A37,37,0,0,1,577.22,372a152.06,152.06,0,0,0-92.48-23c-78.11,5.66-139.81,71.2-141,149.5C342.41,583.56,411.23,653.18,496,653.18c73.55,0,135.08-52.4,149.23-121.83,3.59-17.59,18.65-30.47,36.6-30.47h0c23.34,0,41.11,21.28,36.57,44.18C697.79,649,605.9,727.61,496,727.61,371.55,727.61,270.2,626.82,269.29,502.59Z"/><path class="cls-1" d="M370.65,500.88A125.35,125.35,0,1,1,496,626.24,125.49,125.49,0,0,1,370.65,500.88Zm176.28,0A50.93,50.93,0,1,0,496,551.81,51,51,0,0,0,546.93,500.88Z"/></svg>
