<?xml version="1.0" encoding="utf-8"?>
<!-- Generator: Adobe Illustrator 22.1.0, SVG Export Plug-In . SVG Version: 6.00 Build 0)  -->
<svg version="1.1" id="Layer_1" xmlns="http://www.w3.org/2000/svg" xmlns:xlink="http://www.w3.org/1999/xlink" x="0px" y="0px"
	 viewBox="0 0 1000 1000" style="enable-background:new 0 0 1000 1000;" xml:space="preserve">
<style type="text/css">
	.st0{fill:#53DAF6;}
	.st1{fill:#818CFB;}
	.st2{fill:#FD7361;}
	.st3{fill:#E74034;}
</style>
<g>
	<path class="st0" d="M68.1,500.9c0-239.6,198-433.9,439-427.7c232.6,5.9,419,199.2,416.8,431.9c-0.9,99.2-35.5,193.1-98.2,268.6
		c-13.9,16.7-39.3,17.6-54.7,2.2l0,0c-13.6-13.6-14.6-35.3-2.3-50.1c55.8-67.4,84.4-152.3,80.4-241.5
		c-8.3-182.8-157.3-330.2-340.2-336.7c-200.7-7.2-366.3,154.1-366.3,353.2c0,153.1,97.7,288.1,243,335.9c24.9,8.2,50.5,13.5,76.6,16
		c19.1,1.8,33.8,17.8,33.8,37v0c0,22-19,39.1-41,37c-31.6-3-62.6-9.5-92.7-19.4C186.4,849.6,68.1,686.2,68.1,500.9z"/>
	<path class="st1" d="M210.7,459.5c-22-3.2-36.6-24.9-30.7-46.3c17-61.3,51.8-116.9,100.4-159.3C340.1,201.7,416.7,173,496,173
		c95.6,0,186.2,41.6,248.6,114.1c51.1,59.4,79.3,135.3,79.3,213.8c0,180.8-147.1,327.9-327.9,327.9c-103.9,0-201.2-49.6-262.7-131.7
		c-13.4-17.9-7.8-43.5,11.6-54.5h0c16.2-9.2,36.8-5,48,9.9C340.4,716,415.6,754.3,496,754.3c139.7,0,253.4-113.7,253.4-253.4
		c0-60.7-21.8-119.3-61.3-165.2c-48.2-56-118.3-88.2-192.2-88.2c-114.4,0-214.2,77.8-244.2,185.6
		C246.8,450.9,229.1,462.1,210.7,459.5L210.7,459.5z"/>
	<path class="st2" d="M269.3,502.6c-0.9-119.8,93.3-220.8,212.9-228c47.9-2.9,94.5,9.2,134.1,34c20,12.5,23.7,40.1,7.5,57.3l0,0
		c-12.1,12.8-31.6,15.5-46.5,6.1c-27.2-17.2-59.4-25.4-92.5-23c-78.1,5.7-139.8,71.2-141,149.5c-1.3,85.1,67.5,154.7,152.3,154.7
		c73.5,0,135.1-52.4,149.2-121.8c3.6-17.6,18.6-30.5,36.6-30.5h0c23.3,0,41.1,21.3,36.6,44.2C697.8,649,605.9,727.6,496,727.6
		C371.6,727.6,270.2,626.8,269.3,502.6z"/>
	<path class="st3" d="M370.6,500.9c0-69.1,56.2-125.4,125.4-125.4s125.4,56.2,125.4,125.4S565.1,626.2,496,626.2
		S370.6,570,370.6,500.9z M546.9,500.9c0-28.1-22.8-50.9-50.9-50.9c-28.1,0-50.9,22.8-50.9,50.9c0,28.1,22.8,50.9,50.9,50.9
		C524.1,551.8,546.9,529,546.9,500.9z"/>
</g>
</svg>
